<?xml version="1.0" encoding="utf-8"?>
<!-- Generator: Adobe Illustrator 15.0.2, SVG Export Plug-In . SVG Version: 6.00 Build 0)  -->
<!DOCTYPE svg PUBLIC "-//W3C//DTD SVG 1.1//EN" "http://www.w3.org/Graphics/SVG/1.1/DTD/svg11.dtd">
<svg version="1.1" xmlns="http://www.w3.org/2000/svg" xmlns:xlink="http://www.w3.org/1999/xlink" x="0px" y="0px" width="800px"
	 height="800px" viewBox="0 0 800 800" enable-background="new 0 0 800 800" xml:space="preserve">
<g id="Layer_3">
	<rect fill="#008C60" width="800" height="800"/>
</g>
<g id="Layer_4">
	<g>
		<polygon fill="#FFFFFF" points="574.885,74 498.062,74 75.824,496 155.147,496 		"/>
		<polygon fill="#FFFFFF" points="726.357,75.149 726.357,74 650.775,74 228.539,496 307.763,496 		"/>
		<polygon fill="#FFFFFF" points="726.357,74 726.357,75.149 727.5,74 		"/>
		<polygon fill="#FFFFFF" points="726.357,227.861 726.357,150.426 380.589,496 459.657,496 		"/>
		<polygon fill="#FFFFFF" points="726.357,378.747 726.357,301.061 531.31,496 609.732,496 		"/>
		<polygon fill="#FFFFFF" points="726.357,452.804 683.137,496 726.357,496 		"/>
		<polygon fill="#FFFFFF" points="72.5,350.903 72.5,430.099 426.689,74 349.559,74 		"/>
		<polygon fill="#FFFFFF" points="72.5,196.945 72.5,275.521 272.94,74 195.515,74 		"/>
		<polygon fill="#FFFFFF" points="72.5,122.143 120.385,74 72.5,74 		"/>
	</g>
</g>
<g id="Layer_2">
	<g>
		<path fill="#FFFFFF" d="M72.5,730.083V576.855h51.388v36.106c5.3-13.146,12.542-23.008,21.718-29.583
			c9.176-6.574,20.289-9.861,33.341-9.861c2.141,0,4.306,0.076,6.5,0.228c2.191,0.151,4.409,0.379,6.653,0.683l-5.2,49.154
			c-3.265-1.112-6.476-1.92-9.635-2.428c-3.162-0.505-6.22-0.758-9.176-0.758c-13.256,0-23.477,4.021-30.665,12.061
			c-7.188,8.041-10.782,19.445-10.782,34.211v63.415H72.5z"/>
		<path fill="#FFFFFF" d="M370.881,576.855v153.228h-50.012v-24.88c-7.139,10.619-15.167,18.408-24.088,23.363
			c-8.923,4.954-19.4,7.434-31.43,7.434c-20.597,0-37.064-7.458-49.4-22.378c-12.338-14.917-18.505-34.917-18.505-60.001
			c0-24.98,6.447-44.831,19.347-59.547C229.689,579.358,247.048,572,268.869,572c11.623,0,21.641,2.454,30.053,7.358
			c8.412,4.907,15.624,12.467,21.641,22.681v-25.184H370.881z M323.01,653.317c0-11.933-3.212-21.392-9.635-28.37
			c-6.424-6.979-15.194-10.468-26.306-10.468c-11.115,0-19.858,3.466-26.229,10.393c-6.373,6.928-9.559,16.411-9.559,28.445
			c0,11.936,3.212,21.341,9.635,28.218c6.423,6.88,15.141,10.316,26.153,10.316c11.112,0,19.882-3.437,26.306-10.316
			C319.798,674.658,323.01,665.253,323.01,653.317z"/>
		<path fill="#FFFFFF" d="M452.405,730.083L382.97,576.855h58.117l26.307,67.663c0.306,0.708,0.661,1.569,1.07,2.578
			c3.364,8.902,5.453,16.032,6.271,21.392c0.713-4.954,2.7-11.58,5.965-19.874c0.712-1.821,1.223-3.187,1.529-4.096l26.307-67.663
			h56.74l-70.199,153.228H452.405z"/>
		<path fill="#FFFFFF" d="M727.5,664.241H610.041c0.101,11.833,3.159,20.962,9.177,27.383c6.015,6.425,14.529,9.634,25.541,9.634
			c8.259,0,15.218-1.54,20.876-4.627c5.659-3.084,9.965-7.662,12.924-13.73l40.988,16.385c-4.894,11.735-13.562,20.785-26,27.156
			c-12.44,6.373-27.682,9.559-45.729,9.559c-26.918,0-48.509-7.408-64.771-22.226c-16.265-14.815-24.394-34.362-24.394-58.637
			c0-23.868,8.129-43.692,24.394-59.471C599.309,579.89,619.88,572,644.759,572c25.591,0,45.779,7.991,60.565,23.971
			c14.782,15.982,22.176,37.878,22.176,65.691V664.241z M673.818,633.746c-1.021-8.697-4.359-15.676-10.019-20.936
			c-5.659-5.257-12.618-7.89-20.876-7.89c-8.871,0-15.934,2.404-21.184,7.207c-5.252,4.805-8.743,12.011-10.476,21.618H673.818z"/>
	</g>
</g>
</svg>
